<svg width="17" height="17" viewBox="0 0 17 17" fill="none" xmlns="http://www.w3.org/2000/svg">
<path fill-rule="evenodd" clip-rule="evenodd" d="M0.267919 0.267919C0.43969 0.0963618 0.672534 0 0.915304 0C1.15807 0 1.39092 0.0963618 1.56269 0.267919L16.2205 14.9257C16.3105 15.0096 16.3827 15.1107 16.4327 15.2231C16.4828 15.3354 16.5097 15.4568 16.5119 15.5798C16.5141 15.7028 16.4914 15.8249 16.4454 15.939C16.3993 16.0531 16.3307 16.1567 16.2437 16.2437C16.1567 16.3307 16.0531 16.3993 15.939 16.4454C15.8249 16.4914 15.7028 16.5141 15.5798 16.5119C15.4568 16.5097 15.3354 16.4828 15.2231 16.4327C15.1107 16.3827 15.0096 16.3105 14.9257 16.2205L0.267919 1.56269C0.0963618 1.39092 0 1.15807 0 0.915304C0 0.672534 0.0963618 0.43969 0.267919 0.267919Z" fill="black"/>
<path fill-rule="evenodd" clip-rule="evenodd" d="M16.2199 0.267919C16.3915 0.439691 16.4878 0.672534 16.4878 0.915304C16.4878 1.15807 16.3915 1.39092 16.2199 1.56269L1.56213 16.2205C1.38846 16.3823 1.15877 16.4704 0.921434 16.4662C0.684099 16.462 0.457654 16.3659 0.289807 16.198C0.121959 16.0302 0.0258146 15.8037 0.0216271 15.5664C0.0174396 15.329 0.105536 15.0994 0.267358 14.9257L14.9251 0.267919C15.0969 0.0963619 15.3297 0 15.5725 0C15.8153 0 16.0481 0.0963619 16.2199 0.267919Z" fill="black"/>
</svg>
