<svg width="48" height="48" viewBox="0 0 48 48" fill="none" xmlns="http://www.w3.org/2000/svg">
<path d="M27.1579 24.0799C26.6667 24.4707 26.1404 24.7904 25.5789 25.0391C25.0175 25.2522 24.5088 25.4121 24.0526 25.5186C22.5789 25.8384 21.5263 26.3712 20.8947 27.1172C20.2632 27.8632 19.9474 28.8757 19.9474 30.1545C19.9474 31.2558 20.1579 32.1972 20.5789 32.9787C21 33.7602 21.7018 34.151 22.6842 34.151C23.1754 34.151 23.6842 34.0799 24.2105 33.9378C24.7368 33.7602 25.2105 33.4938 25.6316 33.1385C26.0877 32.7833 26.4561 32.3215 26.7368 31.7531C27.0175 31.1847 27.1579 30.5098 27.1579 29.7282V24.0799ZM13.8947 18.5382V17.8455C13.8947 16.1758 14.1579 14.7904 14.6842 13.6892C15.2105 12.5524 15.9123 11.6465 16.7895 10.9716C17.7018 10.2611 18.7544 9.76377 19.9474 9.47957C21.1754 9.15986 22.4737 9 23.8421 9C26.0175 9 27.7719 9.21314 29.1053 9.63943C30.4386 10.0657 31.4737 10.6696 32.2105 11.4512C32.9474 12.2327 33.4386 13.1741 33.6842 14.2753C33.9649 15.341 34.1053 16.5133 34.1053 17.7922V32.8721C34.1053 34.222 34.1579 35.27 34.2632 36.016C34.4035 36.762 34.6491 37.5613 35 38.4139H28.0526C27.807 37.952 27.614 37.4725 27.4737 36.9751C27.3684 36.4423 27.2632 35.9272 27.1579 35.4298H27.0526C26.2105 36.9218 25.2281 37.8988 24.1053 38.3606C23.0175 38.7869 21.5965 39 19.8421 39C18.5789 39 17.5088 38.7869 16.6316 38.3606C15.7544 37.8988 15.0526 37.2771 14.5263 36.4956C14 35.714 13.614 34.8437 13.3684 33.8845C13.1228 32.8899 13 31.913 13 30.9538C13 29.6039 13.1404 28.4494 13.4211 27.4902C13.7018 26.4956 14.1228 25.6607 14.6842 24.9858C15.2807 24.2753 16.0175 23.6892 16.8947 23.2274C17.807 22.7655 18.8947 22.357 20.1579 22.0018L24.2632 20.8828C25.3509 20.5986 26.1053 20.2078 26.5263 19.7105C26.9474 19.2131 27.1579 18.4849 27.1579 17.5258C27.1579 16.4245 26.8947 15.5719 26.3684 14.968C25.8772 14.3286 25.0175 14.0089 23.7895 14.0089C22.6667 14.0089 21.8246 14.3464 21.2632 15.0213C20.7018 15.6963 20.4211 16.6021 20.4211 17.7389V18.5382H13.8947Z" fill="black"/>
</svg>
