<svg width="74" height="18" viewBox="0 0 74 18" fill="none" xmlns="http://www.w3.org/2000/svg">
<path d="M0 3.17526H2.76555V14.268H0V3.17526Z" fill="#222222"/>
<path d="M3.91254 3.17526H6.55785V4.30928H6.59794C6.9453 3.80069 7.33274 3.43643 7.76027 3.21649C8.20116 2.99656 8.7222 2.8866 9.32341 2.8866C9.9647 2.8866 10.4991 3.0378 10.9266 3.34021C11.3675 3.64261 11.6614 4.08247 11.8084 4.65979H11.8485C12.0622 4.06873 12.4029 3.62887 12.8705 3.34021C13.3515 3.0378 13.9193 2.8866 14.574 2.8866C15.4958 2.8866 16.1705 3.17526 16.598 3.75258C17.0389 4.31615 17.2593 5.13402 17.2593 6.20619V14.268H14.4938V6.51546C14.4938 6.04811 14.4069 5.69072 14.2333 5.4433C14.0729 5.19588 13.7991 5.07217 13.4116 5.07217C12.9707 5.07217 12.6167 5.22337 12.3495 5.52577C12.0956 5.82818 11.9687 6.30928 11.9687 6.96907V14.268H9.20317V6.51546C9.20317 6.04811 9.11633 5.69072 8.94264 5.4433C8.78232 5.19588 8.50844 5.07217 8.12099 5.07217C7.68011 5.07217 7.32606 5.22337 7.05886 5.52577C6.80502 5.82818 6.6781 6.30928 6.6781 6.96907V14.268H3.91254V3.17526Z" fill="#222222"/>
<path d="M18.2977 3.17526H20.943V4.30928H20.9831C21.3304 3.80069 21.7179 3.43643 22.1454 3.21649C22.5863 2.99656 23.1073 2.8866 23.7085 2.8866C24.3498 2.8866 24.8842 3.0378 25.3118 3.34021C25.7526 3.64261 26.0466 4.08247 26.1935 4.65979H26.2336C26.4474 4.06873 26.7881 3.62887 27.2557 3.34021C27.7366 3.0378 28.3044 2.8866 28.9591 2.8866C29.8809 2.8866 30.5556 3.17526 30.9831 3.75258C31.424 4.31615 31.6445 5.13402 31.6445 6.20619V14.268H28.8789V6.51546C28.8789 6.04811 28.7921 5.69072 28.6184 5.4433C28.4581 5.19588 28.1842 5.07217 27.7968 5.07217C27.3559 5.07217 27.0018 5.22337 26.7346 5.52577C26.4808 5.82818 26.3539 6.30928 26.3539 6.96907V14.268H23.5883V6.51546C23.5883 6.04811 23.5015 5.69072 23.3278 5.4433C23.1675 5.19588 22.8936 5.07217 22.5061 5.07217C22.0652 5.07217 21.7112 5.22337 21.444 5.52577C21.1902 5.82818 21.0632 6.30928 21.0632 6.96907V14.268H18.2977V3.17526Z" fill="#222222"/>
<path d="M32.783 3.17526H35.5486V14.268H32.783V3.17526Z" fill="#222222"/>
<path d="M39.2407 9.07216C39.2407 9.45704 39.254 9.82131 39.2807 10.1649C39.3208 10.5086 39.3876 10.8179 39.4812 11.0928C39.588 11.354 39.7283 11.567 39.902 11.732C40.089 11.8832 40.3295 11.9588 40.6234 11.9588C40.9174 11.9588 41.1579 11.8832 41.3449 11.732C41.5453 11.567 41.6989 11.3471 41.8058 11.0722C41.9261 10.7973 42.0062 10.4674 42.0463 10.0825C42.0997 9.68385 42.1265 9.25086 42.1265 8.7835C42.1265 7.43643 42.0196 6.4811 41.8058 5.91753C41.6054 5.35395 41.2313 5.07217 40.6836 5.07217C40.3763 5.07217 40.1291 5.14089 39.9421 5.27835C39.755 5.41581 39.6081 5.64261 39.5012 5.95876C39.3943 6.26117 39.3208 6.67354 39.2807 7.19588C39.254 7.70447 39.2407 8.3299 39.2407 9.07216ZM44.7718 3.17526V13.7113C44.7718 15.1409 44.4244 16.2131 43.7297 16.9278C43.0483 17.6426 41.8993 18 40.2828 18C39.1071 18 38.1986 17.7388 37.5573 17.2165C36.9294 16.7079 36.6154 15.9794 36.6154 15.0309H39.2607C39.2607 15.3883 39.401 15.6701 39.6816 15.8763C39.8152 15.9725 39.9554 16.0481 40.1024 16.1031C40.2627 16.1581 40.4297 16.1856 40.6034 16.1856C41.1645 16.1856 41.5587 16 41.7858 15.6289C42.0129 15.2577 42.1265 14.7973 42.1265 14.2474V12.7835H42.0864C41.8058 13.1959 41.4585 13.5258 41.0443 13.7732C40.6435 14.0206 40.2226 14.1443 39.7818 14.1443C38.6862 14.1443 37.8579 13.7182 37.2968 12.866C36.749 12 36.4751 10.5567 36.4751 8.53608C36.4751 7.89003 36.5085 7.23024 36.5753 6.5567C36.6555 5.88316 36.8091 5.27835 37.0362 4.74227C37.2767 4.19244 37.6174 3.7457 38.0583 3.40206C38.5125 3.05842 39.1137 2.8866 39.8619 2.8866C40.2494 2.8866 40.6502 2.99656 41.0643 3.21649C41.4785 3.43643 41.8192 3.83505 42.0864 4.41237H42.1265V3.17526H44.7718Z" fill="#222222"/>
<path d="M45.9141 3.17526H48.5594V4.65979H48.5995C48.88 4.12371 49.2207 3.69759 49.6215 3.38144C50.0223 3.05155 50.51 2.8866 51.0844 2.8866C51.1646 2.8866 51.2448 2.89347 51.3249 2.90722C51.4185 2.90722 51.5053 2.91409 51.5855 2.92784V5.64948C51.4385 5.63574 51.2915 5.62887 51.1446 5.62887C51.011 5.61512 50.8707 5.60825 50.7237 5.60825C50.4832 5.60825 50.2428 5.64261 50.0023 5.71134C49.7618 5.78007 49.5414 5.89691 49.3409 6.06186C49.1405 6.21306 48.9802 6.41924 48.86 6.68041C48.7397 6.92783 48.6796 7.23711 48.6796 7.60825V14.268H45.9141V3.17526Z" fill="#222222"/>
<path d="M59.8115 3.17526H62.4568V4.47423H62.4969C62.7908 3.9244 63.1716 3.52577 63.6392 3.27835C64.1068 3.01718 64.6412 2.8866 65.2424 2.8866C66.1242 2.8866 66.7989 3.13402 67.2665 3.62887C67.7474 4.12371 67.9879 4.92783 67.9879 6.04124V14.268H65.2224V6.61856C65.2224 6.04124 65.1289 5.64261 64.9418 5.42268C64.7548 5.189 64.4542 5.07217 64.04 5.07217C63.0647 5.07217 62.5771 5.68385 62.5771 6.90722V14.268H59.8115V3.17526Z" fill="#222222"/>
<path d="M69.6312 0H72.3968V3.17526H74V5.1134H72.3968V11.1134C72.3968 11.5533 72.4569 11.8694 72.5771 12.0619C72.7107 12.2406 72.9779 12.3299 73.3787 12.3299C73.4856 12.3299 73.5925 12.3299 73.6994 12.3299C73.8063 12.3162 73.9065 12.3024 74 12.2887V14.268C73.6927 14.268 73.3921 14.2749 73.0982 14.2887C72.8176 14.3162 72.517 14.3299 72.1964 14.3299C71.662 14.3299 71.2211 14.2955 70.8737 14.2268C70.5397 14.1443 70.2792 13.9931 70.0921 13.7732C69.9185 13.5395 69.7982 13.2371 69.7314 12.866C69.6646 12.4948 69.6312 12.0275 69.6312 11.4639V5.1134H68.2284V3.17526H69.6312V0Z" fill="#222222"/>
</svg>
