<svg width="361" height="87" viewBox="0 0 361 87" fill="none" xmlns="http://www.w3.org/2000/svg">
<path d="M0 15.3471H13.7156V68.9622H0V15.3471Z" fill="#2A2A2A"/>
<path d="M19.4041 15.3471H32.5234V20.8282H32.7222C34.4449 18.37 36.3665 16.6094 38.4867 15.5464C40.6733 14.4834 43.2574 13.9519 46.2391 13.9519C49.4195 13.9519 52.0699 14.6827 54.1902 16.1443C56.3767 17.606 57.8344 19.732 58.5633 22.5223H58.7621C59.8222 19.6655 61.5118 17.5395 63.8309 16.1443C66.2162 14.6827 69.0322 13.9519 72.2789 13.9519C76.8508 13.9519 80.1969 15.3471 82.3172 18.1375C84.5037 20.8614 85.597 24.8144 85.597 29.9966V68.9622H71.8814V31.4914C71.8814 29.2325 71.4507 27.5052 70.5893 26.3093C69.7942 25.1134 68.4359 24.5155 66.5144 24.5155C64.3278 24.5155 62.572 25.2463 61.2468 26.7079C59.9879 28.1695 59.3584 30.4948 59.3584 33.6838V68.9622H45.6427V31.4914C45.6427 29.2325 45.212 27.5052 44.3507 26.3093C43.5556 25.1134 42.1973 24.5155 40.2757 24.5155C38.0892 24.5155 36.3333 25.2463 35.0081 26.7079C33.7492 28.1695 33.1198 30.4948 33.1198 33.6838V68.9622H19.4041V15.3471Z" fill="#2A2A2A"/>
<path d="M90.7466 15.3471H103.866V20.8282H104.065C105.787 18.37 107.709 16.6094 109.829 15.5464C112.016 14.4834 114.6 13.9519 117.582 13.9519C120.762 13.9519 123.412 14.6827 125.533 16.1443C127.719 17.606 129.177 19.732 129.906 22.5223H130.105C131.165 19.6655 132.854 17.5395 135.173 16.1443C137.559 14.6827 140.375 13.9519 143.621 13.9519C148.193 13.9519 151.539 15.3471 153.66 18.1375C155.846 20.8614 156.94 24.8144 156.94 29.9966V68.9622H143.224V31.4914C143.224 29.2325 142.793 27.5052 141.932 26.3093C141.137 25.1134 139.778 24.5155 137.857 24.5155C135.67 24.5155 133.914 25.2463 132.589 26.7079C131.33 28.1695 130.701 30.4948 130.701 33.6838V68.9622H116.985V31.4914C116.985 29.2325 116.555 27.5052 115.693 26.3093C114.898 25.1134 113.54 24.5155 111.618 24.5155C109.432 24.5155 107.676 25.2463 106.351 26.7079C105.092 28.1695 104.462 30.4948 104.462 33.6838V68.9622H90.7466V15.3471Z" fill="#2A2A2A"/>
<path d="M162.586 15.3471H176.302V68.9622H162.586V15.3471Z" fill="#2A2A2A"/>
<path d="M194.613 43.8488C194.613 45.709 194.679 47.4696 194.811 49.1306C195.01 50.7915 195.341 52.2864 195.805 53.6151C196.335 54.8774 197.031 55.9072 197.892 56.7045C198.82 57.4353 200.013 57.8007 201.47 57.8007C202.928 57.8007 204.121 57.4353 205.048 56.7045C206.042 55.9072 206.804 54.8442 207.334 53.5155C207.931 52.1867 208.328 50.5922 208.527 48.732C208.792 46.8053 208.924 44.7125 208.924 42.4536C208.924 35.9427 208.394 31.3253 207.334 28.6014C206.34 25.8774 204.485 24.5155 201.768 24.5155C200.245 24.5155 199.019 24.8477 198.091 25.512C197.163 26.1764 196.435 27.2726 195.905 28.8007C195.374 30.2623 195.01 32.2554 194.811 34.7801C194.679 37.2383 194.613 40.2612 194.613 43.8488ZM222.044 15.3471V66.2715C222.044 73.181 220.321 78.3631 216.876 81.8179C213.496 85.2726 207.798 87 199.781 87C193.95 87 189.444 85.7377 186.264 83.2131C183.15 80.7549 181.593 77.2337 181.593 72.6495H194.712C194.712 74.3769 195.408 75.7388 196.799 76.7354C197.462 77.2005 198.157 77.5659 198.886 77.8316C199.681 78.0974 200.51 78.2302 201.371 78.2302C204.154 78.2302 206.108 77.3333 207.235 75.5395C208.361 73.7457 208.924 71.5201 208.924 68.8625V61.7869H208.726C207.334 63.7801 205.612 65.3746 203.557 66.5704C201.57 67.7663 199.483 68.3643 197.296 68.3643C191.863 68.3643 187.755 66.3047 184.972 62.1856C182.255 58 180.897 51.0241 180.897 41.2577C180.897 38.1352 181.062 34.9462 181.394 31.6907C181.791 28.4353 182.553 25.512 183.68 22.921C184.872 20.2635 186.562 18.1042 188.749 16.4433C191.001 14.7824 193.983 13.9519 197.694 13.9519C199.615 13.9519 201.603 14.4834 203.657 15.5464C205.711 16.6094 207.401 18.5361 208.726 21.3265H208.924V15.3471H222.044Z" fill="#2A2A2A"/>
<path d="M227.709 15.3471H240.828V22.5223H241.027C242.418 19.9313 244.108 17.8717 246.096 16.3436C248.084 14.7491 250.502 13.9519 253.351 13.9519C253.749 13.9519 254.146 13.9851 254.544 14.0515C255.008 14.0515 255.438 14.0848 255.836 14.1512V27.3058C255.107 27.2394 254.378 27.2062 253.649 27.2062C252.987 27.1397 252.291 27.1065 251.562 27.1065C250.37 27.1065 249.177 27.2726 247.984 27.6048C246.792 27.937 245.698 28.5017 244.704 29.299C243.711 30.0298 242.915 31.0263 242.319 32.2887C241.723 33.4845 241.425 34.9794 241.425 36.7732V68.9622H227.709V15.3471Z" fill="#2A2A2A"/>
<path d="M296.633 15.3471H309.752V21.6254H309.951C311.409 18.9679 313.297 17.0412 315.616 15.8454C317.935 14.583 320.585 13.9519 323.567 13.9519C327.94 13.9519 331.286 15.1478 333.605 17.5395C335.991 19.9313 337.183 23.8179 337.183 29.1993V68.9622H323.468V31.9897C323.468 29.1993 323.004 27.2726 322.076 26.2096C321.149 25.0802 319.658 24.5155 317.604 24.5155C312.767 24.5155 310.348 27.4719 310.348 33.3849V68.9622H296.633V15.3471Z" fill="#2A2A2A"/>
<path d="M345.333 0H359.049V15.3471H367V24.7148H359.049V53.7148C359.049 55.8408 359.347 57.3688 359.943 58.299C360.606 59.1627 361.931 59.5945 363.919 59.5945C364.449 59.5945 364.979 59.5945 365.509 59.5945C366.039 59.5281 366.536 59.4616 367 59.3952V68.9622C365.476 68.9622 363.985 68.9954 362.527 69.0619C361.136 69.1947 359.645 69.2612 358.055 69.2612C355.405 69.2612 353.218 69.0951 351.495 68.7629C349.839 68.3643 348.547 67.6335 347.619 66.5704C346.758 65.441 346.161 63.9794 345.83 62.1856C345.499 60.3918 345.333 58.1329 345.333 55.4089V24.7148H338.376V15.3471H345.333V0Z" fill="#2A2A2A"/>
</svg>
